<svg xmlns="http://www.w3.org/2000/svg" xmlns:xlink="http://www.w3.org/1999/xlink" version="1.1" x="0px" y="0px"
    viewBox="0 0 95 118.75" enable-background="new 0 0 95 95" xml:space="preserve">
    <g>
        <path
            d="M7.938,67.281h79.125V27.719H7.938V67.281z M12.976,37.795c2.782,0,5.038-2.255,5.038-5.038h58.973   c0,2.783,2.256,5.038,5.038,5.038v19.41c-2.782,0-5.038,2.256-5.038,5.038H18.014c0-2.782-2.256-5.038-5.038-5.038V37.795z" />
        <polygon points="84.555,21.258 51.344,26.365 85.34,26.365  " />
        <polygon points="6.584,48.625 6.584,33.247 4.273,33.603  " />
        <polygon points="10.446,73.742 43.656,68.635 9.66,68.635  " />
        <polygon points="88.416,46.375 88.416,61.751 90.727,61.397  " />
        <circle cx="25.688" cy="47.501" r="5.038" />
        <circle cx="69.312" cy="47.501" r="5.038" />
        <path
            d="M46.69,41.357c-0.455,0.155-0.818,0.418-1.088,0.788c-0.271,0.368-0.405,0.777-0.405,1.225c0,0.409,0.123,0.79,0.371,1.139   c0.245,0.353,0.619,0.635,1.122,0.85V41.357z" />
        <path
            d="M50.321,51.353c0-0.517-0.152-0.962-0.456-1.336c-0.306-0.374-0.805-0.661-1.499-0.862v4.511   c0.58-0.108,1.05-0.375,1.411-0.804C50.142,52.433,50.321,51.931,50.321,51.353z" />
        <path
            d="M49.438,60.1c6.959-1.07,11.732-7.578,10.662-14.538c-1.07-6.96-7.578-11.731-14.537-10.662S33.83,42.477,34.9,49.437   S42.479,61.169,49.438,60.1z M43.363,46.697c-0.705-0.876-1.058-1.938-1.058-3.188c0-1.264,0.399-2.327,1.197-3.187   c0.799-0.86,1.86-1.355,3.188-1.486v-1.146h1.676v1.146c1.228,0.146,2.202,0.565,2.929,1.255c0.723,0.689,1.186,1.613,1.386,2.77   l-2.925,0.382c-0.179-0.91-0.641-1.526-1.39-1.851v4.523c1.852,0.501,3.111,1.151,3.783,1.948c0.672,0.798,1.007,1.822,1.007,3.07   c0,1.396-0.423,2.572-1.268,3.529c-0.845,0.956-2.019,1.542-3.522,1.758v1.085H46.69V56.28c-1.335-0.162-2.418-0.66-3.251-1.492   c-0.832-0.833-1.364-2.009-1.596-3.529l3.02-0.325c0.122,0.619,0.354,1.151,0.692,1.597c0.339,0.448,0.719,0.771,1.135,0.972   v-4.846C45.178,48.226,44.069,47.571,43.363,46.697z" />
    </g>
</svg>