<svg xmlns="http://www.w3.org/2000/svg" xmlns:xlink="http://www.w3.org/1999/xlink" version="1.1" x="0px" y="0px"
    viewBox="0 0 90 112.5"  xml:space="preserve">
    <path
        d="M65.728,17.882c-0.786-0.02-1.552,0.057-2.26,0.209c-1.698,0.369-3.198,1.228-4.319,2.348  c-2.369,2.371-2.926,4.371-2.984,7.172c-0.042,2.182,1.317,4.041,3.136,4.875c0.979,0.428,2.375,0.385,3.317-0.077  c0.474-0.235,0.828-0.557,1.025-0.938c0.204-0.385,0.277-0.854,0.101-1.5l-1.751-6.526c-0.271-1.025,0.636-1.167,0.854-0.505  l2.198,6.688c0.245,0.911,0.156,1.771-0.203,2.464c-0.355,0.687-0.948,1.187-1.625,1.52c-1.35,0.667-3.057,0.724-4.459,0.109  c-1.162-0.505-2.265-1.396-2.984-2.599c-2.104,10.875-6.744,11.136-13.301,16.667c1.135,4.574,0.733,7.312,0.317,9.579  c-0.448,2.463-0.797,4.52,0.525,9.394c2.167,0.943,3.833,2.86,3.833,5.396l9.385,0.006c-0.176-1.995-1.552-3.911-3.259-4  c-0.49-0.031-0.792-0.635-0.568-1.145l3.052-6.938c0.589-1.333,0.548-2.595,0.109-3.75c-0.438-1.156-1.333-2.126-2.342-2.823  c-1.032-0.719-0.402-2.025,0.635-1.407c1.302,0.782,2.37,2.057,2.953,3.59c0.579,1.536,0.625,3.375-0.146,5.115l-2.75,6.238  c0.505,0.152,0.98,0.412,1.417,0.751c2.557-0.775,4.167-1.891,5.244-3.36l1.469,7.73h8.948c-0.188-1.979-1.546-3.844-3.224-3.844  c-0.313,0-0.589-0.25-0.661-0.604c-0.656-3.109-1.121-5.823-1.121-9.449c0-0.738,0.823-0.812,0.902-0.197  c0.4,3.151,0.578,5.938,1.484,8.964c2.479,0.042,3.838,2.566,3.984,5.129h4.552c0-2.801-1.854-5.088-4.213-5.296  c-3.896-14.094-0.984-13.636-2.516-28.343c-0.167-1.604,0.548-3.016,2.324-3.875l4.828-2.338c3.171-1.376,3.411-3.365,3.562-5.131  c0.176-2.052-0.838-3.099-2.338-3.099c-4.125,0-4.267-0.718-6-2.713C70.706,18.898,68.092,17.945,65.728,17.882z" />
    <path
        d="M38.004,26.95c-0.516-0.036-1.042,0.308-1.286,1.109l-0.968,3.183c-3.057,1.765-4.579,5.369-3.548,8.588  c2.934,9.125-6.995,10.349-11.369,17.688c-1.833,3.077-2.442,6.051-1.151,9.421c-0.494,1.448-1.604,1.761-2.635,1.599  c-0.547-0.083-0.979-0.343-1.208-0.646c-0.229-0.301-0.375-0.65-0.188-1.432l2.141-9.063c0.542-2.286-0.808-4.401-2.489-5.286  c-0.839-0.443-1.776-0.697-2.724-0.714c-0.948-0.016-1.907,0.214-2.792,0.724c-2.15,1.183-0.298,4.385,1.797,3.121  c0.452-0.261,1.426-0.266,2.046,0.057c0.62,0.328,0.833,0.51,0.656,1.27l-2.146,9.057c-0.391,1.662-0.043,3.302,0.837,4.454  c0.876,1.145,2.172,1.801,3.505,2.014c1.505,0.235,4.152-0.145,6.338-1.124c1.141,0.795,2.442,1.192,3.828,1.192h5.245  c-0.15-1.645-1.349-3.219-2.833-3.292c-0.427-0.025-0.688-0.525-0.495-0.946l3.609-5.715c0.646-1.025,0.474-2.14,0.094-3.088  c-0.38-0.953-1.129-1.803-2.036-2.328c-1.13-0.656-0.281-1.775,0.547-1.156c1.041,0.781,2.063,1.692,2.567,2.957  c0.506,1.262,0.74,2.882-0.125,4.21l-3.344,5.14c1.688,0.484,3.052,2.229,3.193,4.219h7.391c-0.161-1.629-1.344-3.167-2.808-3.167  c-0.27,0-0.51-0.203-0.571-0.5c-0.568-2.563-0.975-4.796-0.975-7.781c0-0.734,0.713-0.771,0.786-0.162  c0.312,2.599,0.5,4.891,1.292,7.385c2.155,0.032,3.333,2.115,3.462,4.224h3.964c0-2.307-1.62-4.192-3.667-4.364  c-3.254-11.256,1.979-10.318-1.479-21.428c-0.355-1.369-0.407-2.432,1.172-2.662c3.395-0.505,5.76-1.295,6.468-4.036  c0.417-1.677-0.052-2.24-1.167-2.817c-0.781-0.402-1.292-1.355-1.724-1.896c-0.104-0.208-0.208-0.427-0.301-0.672  c-0.6-1.541-1.308-2.281-2.365-2.677l-0.255-2.369c-0.155-1.484-1.641-1.656-2.224-0.156l-0.401,1.052l-0.479-1.986  C39.014,27.414,38.521,26.991,38.004,26.95z" />
    
</svg>