<svg xmlns="http://www.w3.org/2000/svg" xmlns:xlink="http://www.w3.org/1999/xlink" version="1.1" x="0px" y="0px"
    viewBox="0 0 512 640" style="enable-background:new 0 0 512 512;" xml:space="preserve">
    <g>
        <path
            d="M289.8,404.4h-67.5c-13.1,0-23.8,10.7-23.8,23.9v52.3h115.2v-52.3C313.6,415.1,302.8,404.4,289.8,404.4L289.8,404.4z    M276.6,342.1c-18.3-18.3-49.8-5.3-49.8,20.6c0,25.9,31.5,39,49.8,20.6C288,371.9,288,353.4,276.6,342.1L276.6,342.1z M126.6,316.2   H63.9c-12,0-21.8,9.8-21.8,21.8v48.2h106.3V338C148.4,326,138.6,316.2,126.6,316.2L126.6,316.2z M114.2,258.1   c-16.8-16.8-45.7-4.8-45.7,18.9c0,23.8,28.9,35.7,45.7,18.9C124.6,285.6,124.6,268.6,114.2,258.1L114.2,258.1z M448.1,316.2h-62.7   c-12,0-21.8,9.8-21.8,21.8v48.2h106.3V338C469.9,326,460.1,316.2,448.1,316.2L448.1,316.2z M435.7,258.1   c-16.8-16.8-45.7-4.8-45.7,18.9c0,23.8,28.9,35.7,45.7,18.9C446.1,285.6,446.1,268.6,435.7,258.1L435.7,258.1z M231,38.4   c-22.8-11.7-49.4-8.1-69.9,8.2c-11,8.8-19.2,20.8-21.3,34.3c-3.6,23.4,11.6,48.1,25.6,67c28.3,38.6,71.6,82,91.8,102.2   c20-20,62.4-62.5,90.8-100.8c18-24.2,31.5-56,21.1-83.3c-8.8-23.1-30.5-34.6-56.9-34.6c-20.4,0-39.7,9.9-51.2,26.2   c-1.8,2.5-5.6,2.6-7.5,0C247.7,49.6,240,42.9,231,38.4L231,38.4z M292.3,95.4c-20-20-52.5-20-72.5,0c-20,20-20,52.5,0,72.5   c20,20,52.5,20,72.5,0C312.3,147.9,312.3,115.5,292.3,95.4L292.3,95.4z M256,71.3c33.4,0,60.4,27.1,60.4,60.4   c0,33.4-27.1,60.4-60.4,60.4c-33.4,0-60.4-27.1-60.4-60.4C195.6,98.3,222.6,71.3,256,71.3L256,71.3z M227.2,131.3   c-3-5.2,4.9-9.7,7.9-4.5l8.9,15.4l30.7-30.6c4.2-4.3,10.7,2.2,6.5,6.5l-34.8,34.9h0c-2.1,2.1-5.7,1.6-7.1-1L227.2,131.3z    M340.6,212.6c-4.2-4.4,2.5-10.7,6.6-6.3l30.3,31.7c4.2,4.3-2.5,10.7-6.6,6.3L340.6,212.6z M164.8,206.4c4.2-4.4,10.8,1.9,6.6,6.3   l-30.3,31.7c-4.2,4.4-10.8-1.9-6.6-6.3L164.8,206.4z M251.4,282.5c0-6,9.2-6,9.2,0v24.7c0,6-9.2,6-9.2,0V282.5z" />
    </g>
</svg>